<svg xmlns="http://www.w3.org/2000/svg" viewBox="0 0 1024 1024" role="img" aria-label="Tenaz CRM">
  <rect width="1024" height="1024" rx="180" fill="#FFFFFF"/>
  <g transform="translate(0,192)">
    <path d="M5.060,143.947 L58.696,143.947 L58.696,0.000 L111.320,0.000 L111.320,143.947 L164.956,143.947 L164.956,188.474 L5.060,188.474 L5.060,143.947 Z M246.806,-3.036 C281.983,-3.036 310.319,16.313 315.257,43.637 L270.446,43.637 C267.694,36.432 259.598,32.141 248.830,32.141 C234.136,32.141 225.311,40.480 224.906,54.648 L315.743,54.648 L315.743,68.168 C315.743,108.284 286.760,136.620 245.794,136.620 C204.788,136.620 175.845,107.636 175.845,66.792 C175.845,25.948 205.193,-3.036 246.806,-3.036 Z M225.311,82.984 C227.052,93.994 234.905,100.431 247.170,100.431 C259.436,100.431 267.289,93.994 269.070,82.984 L225.311,82.984 Z M382.545,70.840 C382.545,86.263 389.224,93.873 401.125,93.873 C413.027,93.873 419.746,86.263 419.746,72.864 L419.746,0.000 L470.346,0.000 L470.346,84.239 C470.346,116.380 455.004,136.620 425.292,136.620 C404.283,136.620 390.763,126.621 381.897,111.320 L381.897,133.584 L331.945,133.584 L331.945,0.000 L382.545,0.000 L382.545,70.840 Z M533.060,-2.388 C550.142,-2.388 562.691,2.793 571.515,18.742 L572.042,18.742 L572.042,0.000 L621.387,0.000 L621.387,89.299 C621.387,119.659 599.366,136.620 558.117,136.620 C517.151,136.620 495.251,119.659 493.106,89.299 L539.415,89.299 C540.265,97.152 546.094,101.443 556.093,101.443 C565.322,101.443 571.273,97.678 571.273,91.849 L571.273,91.323 C571.273,83.996 562.407,81.203 538.889,79.705 C510.067,77.802 487.520,66.792 487.520,36.958 C487.520,10.363 506.262,-2.388 533.060,-2.388 Z M549.535,29.105 C540.913,29.105 534.841,33.153 534.841,39.994 C534.841,46.795 541.156,51.369 551.559,53.150 C560.910,54.769 566.739,56.186 571.799,57.927 L571.799,47.321 C571.799,35.420 560.383,29.105 549.535,29.105 Z M644.632,0.000 L765.060,0.000 L765.060,38.213 L705.109,38.213 L705.109,38.456 L763.805,99.176 L763.805,133.584 L644.632,133.584 L644.632,95.128 L704.988,95.128 L704.988,94.885 L644.632,32.384 L644.632,0.000 Z" fill="#050505" transform="translate(126.940,302.719) scale(1,-1)"/>
    <path d="M102.304,-3.213 C153.285,-3.213 189.314,27.847 194.926,74.972 L138.848,74.972 C135.335,56.250 122.482,44.983 103.375,44.983 C76.171,44.983 61.605,64.818 61.605,99.605 C61.605,134.564 76.300,154.485 103.375,154.485 C122.482,154.485 135.506,143.132 138.848,124.239 L194.926,124.239 C189.443,171.364 153.285,202.681 102.304,202.681 C47.811,202.681 5.355,166.266 5.355,99.605 C5.355,33.459 47.811,-3.213 102.304,-3.213 Z M210.724,0.000 L266.417,0.000 L266.417,62.376 L291.308,62.376 L321.168,0.000 L379.132,0.000 L342.589,74.458 C361.996,85.939 373.006,105.089 373.006,129.851 C373.006,172.563 343.146,199.468 295.464,199.468 L210.724,199.468 L210.724,0.000 Z M266.417,105.517 L266.417,154.228 L291.308,154.228 C308.059,154.228 318.640,144.460 318.640,129.851 C318.640,115.285 308.059,105.517 291.308,105.517 L266.417,105.517 Z M393.200,0.000 L447.822,0.000 L447.822,77.114 C447.822,89.966 446.751,115.542 446.066,140.176 C452.492,115.799 459.218,90.652 463.373,77.114 L486.936,0.000 L531.919,0.000 L555.053,77.114 C559.209,91.166 566.192,117.556 572.447,142.575 C571.932,117.299 570.733,90.523 570.733,77.114 L570.733,0.000 L625.355,0.000 L625.355,199.468 L541.944,199.468 L524.250,137.091 C520.395,123.553 514.483,100.419 509.427,79.941 C504.329,100.419 498.289,123.553 494.433,137.091 L476.483,199.468 L393.200,199.468 L393.200,0.000 Z" fill="#050505" transform="translate(196.645,549.734) scale(1,-1)"/>
  </g>
</svg>
