<svg xmlns="http://www.w3.org/2000/svg" viewBox="0 0 900 220" role="img" aria-labelledby="title desc">
  <title id="title">Tenaz CRM wordmark</title>
  <desc id="desc">Tenaz CRM wordmark lockup with the primary Tenaz T symbol.</desc>
  <defs>
    <filter id="soft-shadow" x="-10%" y="-10%" width="120%" height="130%">
      <feDropShadow dx="0" dy="7" stdDeviation="8" flood-color="#05070b" flood-opacity=".16"/>
    </filter>
  </defs>
  <g transform="translate(42 26) scale(.64)" fill="#05070b" filter="url(#soft-shadow)">
    <path d="M30 48h68l15 39-10 18H30c-5 0-8-3-8-8V56c0-5 3-8 8-8Z"/>
    <path d="M158 48h68c5 0 8 3 8 8v41c0 5-3 8-8 8h-73l-10-18 15-39Z"/>
    <path d="M84 87h23l16 43h10l16-43h23v132c0 17-11 28-28 28h-32c-17 0-28-11-28-28V87Z"/>
  </g>
  <text x="238" y="139" fill="#05070b" font-family="Inter, Avenir Next, Helvetica Neue, Arial, sans-serif" font-size="92" font-weight="700" letter-spacing="0">Tenaz</text>
  <text x="560" y="139" fill="#05070b" font-family="Inter, Avenir Next, Helvetica Neue, Arial, sans-serif" font-size="88" font-weight="400" letter-spacing="0">CRM</text>
</svg>
