<svg xmlns="http://www.w3.org/2000/svg" viewBox="0 0 1064 260" role="img" aria-labelledby="title desc">
  <title id="title">Tenaz CRM reverse logo</title>
  <desc id="desc">White Tenaz CRM lockup on a deep navy rounded rectangle.</desc>
  <defs>
    <linearGradient id="reverse-bg" x1="0" x2="1064" y1="0" y2="260" gradientUnits="userSpaceOnUse">
      <stop offset="0" stop-color="#07162c"/>
      <stop offset=".58" stop-color="#061225"/>
      <stop offset="1" stop-color="#030914"/>
    </linearGradient>
    <filter id="reverse-depth" x="-10%" y="-20%" width="120%" height="150%">
      <feDropShadow dx="0" dy="12" stdDeviation="13" flood-color="#000000" flood-opacity=".22"/>
    </filter>
  </defs>
  <rect width="1064" height="260" rx="8" fill="url(#reverse-bg)"/>
  <g transform="translate(224 60) scale(.58)" fill="#ffffff" filter="url(#reverse-depth)">
    <path d="M30 48h68l15 39-10 18H30c-5 0-8-3-8-8V56c0-5 3-8 8-8Z"/>
    <path d="M158 48h68c5 0 8 3 8 8v41c0 5-3 8-8 8h-73l-10-18 15-39Z"/>
    <path d="M84 87h23l16 43h10l16-43h23v132c0 17-11 28-28 28h-32c-17 0-28-11-28-28V87Z"/>
  </g>
  <text x="454" y="164" fill="#ffffff" font-family="Inter, Avenir Next, Helvetica Neue, Arial, sans-serif" font-size="88" font-weight="700" letter-spacing="0">Tenaz</text>
  <text x="790" y="164" fill="#ffffff" font-family="Inter, Avenir Next, Helvetica Neue, Arial, sans-serif" font-size="82" font-weight="400" letter-spacing="0">CRM</text>
</svg>
